<svg width="32" height="32" viewBox="0 0 32 32" fill="none" xmlns="http://www.w3.org/2000/svg">
<path fill-rule="evenodd" clip-rule="evenodd" d="M5.81818 0C4.2751 0 2.79523 0.612985 1.70411 1.70411C0.612985 2.79523 0 4.2751 0 5.81818V26.1818C0 27.7249 0.612985 29.2048 1.70411 30.2959C2.79523 31.387 4.2751 32 5.81818 32H26.1818C27.7249 32 29.2048 31.387 30.2959 30.2959C31.387 29.2048 32 27.7249 32 26.1818V5.81818C32 4.2751 31.387 2.79523 30.2959 1.70411C29.2048 0.612985 27.7249 0 26.1818 0H5.81818ZM7.68873 13.4022V24.3113L15.5433 15.2291C13.197 14.0259 10.5975 13.3996 7.96073 13.4022H7.68873ZM17.008 13.5345C14.2355 12.013 11.1233 11.217 7.96073 11.2204H7.68873V5.09091H24.3113L17.008 13.5345ZM17.4444 16.3665L8.32727 26.9091H24.3113C23.4903 22.6316 21.0249 18.8466 17.4444 16.3665Z" fill="url(#paint0_linear_190_21)"/>
<defs>
<linearGradient id="paint0_linear_190_21" x1="7.55555" y1="3.55556" x2="34.6667" y2="31.1111" gradientUnits="userSpaceOnUse">
<stop stop-color="#4F48ED"/>
<stop offset="1" stop-color="#4147B3"/>
</linearGradient>
</defs>
</svg>
